<svg xmlns="http://www.w3.org/2000/svg" viewBox="0 0 63 64"><path fill="#fbfbfb" stroke="#fbfbfb" d="M22.005 1.494c-1.451 1.748-1.14 3.308 2.772 13.907 3.085 8.36 5.065 10.715 8.301 9.868 4.682-1.224 4.788-6.953.319-17.147C29.968.3 25.266-2.435 22.005 1.494m33.2.337c-.712.463-2.12 4.874-3.13 9.803-3.924 19.153-15.639 34.106-32.321 41.257-5.825 2.497-7.526 5.281-5.302 8.676 2.789 4.256 8.224 2.776 20.601-5.611C49.24 46.342 61.927 25.56 61.988 11.833c.007-1.466.552-2.846 1.211-3.066.846-.282.61-1.413-.8-3.833-2.015-3.458-4.801-4.66-7.194-3.103M1.381 6.448C.406 8.991 5.106 24.801 8.309 29.75c1.12 1.73 5.183 1.568 6.706-.268 3.806-4.586-3.893-23.729-9.772-24.296-2.252-.217-3.443.172-3.862 1.262" fill-rule="evenodd"/><path fill="#f5f4f5" stroke="#f5f4f5" d="M22.571 1.571c-2.022 2.023-2.146 1.317 2.256 12.929 3.106 8.193 4.196 10.059 6.037 10.327 5.64.82 6.842-6.619 2.558-15.824C29.286.119 26.163-2.021 22.571 1.571M55 3c-1.1 1.1-2 3.327-2 4.948 0 5.024-4.791 18.418-8.809 24.63-5.113 7.905-12.403 14.269-22.154 19.342C14.783 55.694 14 56.385 14 59.015c0 11.515 25.085-1.742 37.4-19.766 8.351-12.223 13.593-33.587 9.054-36.906C58.016.56 57.361.639 55 3M1.714 5.619c-1.32 1.32-.73 6.43 1.175 10.171 1.038 2.04 2.467 5.735 3.175 8.21 1.632 5.71 2.634 7 5.436 7 5.707 0 5.857-8.045.353-18.879C8.55 5.62 4.384 2.949 1.714 5.619" fill-rule="evenodd"/><path fill="#715c71" stroke="#715c71" d="M23.554 1.337C21.321 2.97 21.673 5.359 25.792 16.5c3.08 8.328 5.366 10.273 8.763 7.454 3.148-2.612-.204-16.694-5.152-21.641-2.679-2.68-3.363-2.794-5.849-.976M54.498 3.25c-.242.688-1.119 4.625-1.95 8.75-3.582 17.792-15.145 32.883-31.061 40.538-7.284 3.504-7.587 3.786-7.293 6.809.88 9.067 22.629-1.398 34.416-16.56 9.071-11.67 15.63-31.786 12.783-39.205-.728-1.896-6.252-2.162-6.895-.332M2.2 6.2c-1.705 1.705-1.49 4.31.708 8.62 1.05 2.057 2.65 6.292 3.557 9.411 1.675 5.763 3.57 7.46 6.903 6.181 3.665-1.406 3.014-8.716-1.596-17.912C8.183 5.339 5.094 3.306 2.2 6.2" fill-rule="evenodd"/><path fill="#351635" stroke="#351635" d="M22.356 2.515c-.649 1.691-.581 1.96 3.16 12.485 3.108 8.746 4.438 10.467 7.37 9.536 4.288-1.361 3.717-8.449-1.515-18.786-2.544-5.025-7.628-6.849-9.015-3.235M54.437 4.75c-5.781 26.466-13.267 37.749-31.25 47.096-8.555 4.447-10.245 6.245-8.495 9.04 4.809 7.686 31.92-11.276 40.096-28.044C60.397 21.338 63.524 5.924 60.8 3.2c-2.273-2.273-5.71-1.436-6.363 1.55M1.933 6.58C.86 7.873.855 8.736 1.906 11.33c.706 1.744 2.503 6.545 3.993 10.67 2.355 6.517 3.054 7.541 5.338 7.81 4.188.494 5.245-2.64 3.23-9.573C10.816 7.68 5.672 2.075 1.933 6.58" fill-rule="evenodd"/></svg>